<svg id="visual" viewBox="0 0 1080 350" width="1080" height="350" xmlns="http://www.w3.org/2000/svg" xmlns:xlink="http://www.w3.org/1999/xlink" version="1.1"><path d="M0 81L18 81.8C36 82.7 72 84.3 108 83.5C144 82.7 180 79.3 216 75.5C252 71.7 288 67.3 324 67.3C360 67.3 396 71.7 432 74.5C468 77.3 504 78.7 540 78.3C576 78 612 76 648 75.7C684 75.3 720 76.7 756 74C792 71.3 828 64.7 864 65C900 65.3 936 72.7 972 75.7C1008 78.7 1044 77.3 1062 76.7L1080 76L1080 0L1062 0C1044 0 1008 0 972 0C936 0 900 0 864 0C828 0 792 0 756 0C720 0 684 0 648 0C612 0 576 0 540 0C504 0 468 0 432 0C396 0 360 0 324 0C288 0 252 0 216 0C180 0 144 0 108 0C72 0 36 0 18 0L0 0Z" fill="#20377b"></path><path d="M0 55L18 56.5C36 58 72 61 108 58.2C144 55.3 180 46.7 216 46.2C252 45.7 288 53.3 324 55.7C360 58 396 55 432 55.5C468 56 504 60 540 60.8C576 61.7 612 59.3 648 57.2C684 55 720 53 756 52.7C792 52.3 828 53.7 864 52.7C900 51.7 936 48.3 972 45.7C1008 43 1044 41 1062 40L1080 39L1080 0L1062 0C1044 0 1008 0 972 0C936 0 900 0 864 0C828 0 792 0 756 0C720 0 684 0 648 0C612 0 576 0 540 0C504 0 468 0 432 0C396 0 360 0 324 0C288 0 252 0 216 0C180 0 144 0 108 0C72 0 36 0 18 0L0 0Z" fill="#393f80"></path><path d="M0 24L18 27.5C36 31 72 38 108 39.3C144 40.7 180 36.3 216 35.3C252 34.3 288 36.7 324 38.3C360 40 396 41 432 42.2C468 43.3 504 44.7 540 41.7C576 38.7 612 31.3 648 29.8C684 28.3 720 32.7 756 36.2C792 39.7 828 42.3 864 40C900 37.7 936 30.3 972 29.5C1008 28.7 1044 34.3 1062 37.2L1080 40L1080 0L1062 0C1044 0 1008 0 972 0C936 0 900 0 864 0C828 0 792 0 756 0C720 0 684 0 648 0C612 0 576 0 540 0C504 0 468 0 432 0C396 0 360 0 324 0C288 0 252 0 216 0C180 0 144 0 108 0C72 0 36 0 18 0L0 0Z" fill="#4c4884"></path><path d="M0 23L18 23C36 23 72 23 108 22.5C144 22 180 21 216 21.5C252 22 288 24 324 24.3C360 24.7 396 23.3 432 22.2C468 21 504 20 540 21.2C576 22.3 612 25.7 648 24.8C684 24 720 19 756 16.5C792 14 828 14 864 16.2C900 18.3 936 22.7 972 23.8C1008 25 1044 23 1062 22L1080 21L1080 0L1062 0C1044 0 1008 0 972 0C936 0 900 0 864 0C828 0 792 0 756 0C720 0 684 0 648 0C612 0 576 0 540 0C504 0 468 0 432 0C396 0 360 0 324 0C288 0 252 0 216 0C180 0 144 0 108 0C72 0 36 0 18 0L0 0Z" fill="#5c5189"></path></svg>